<mxfile host="app.diagrams.net" modified="2024-05-31T16:54:27.367Z" agent="Mozilla/5.0 (Windows NT 10.0; Win64; x64) AppleWebKit/537.36 (KHTML, like Gecko) Chrome/125.0.0.0 Safari/537.36 Edg/125.0.0.0" etag="s0O4OvYxdMdUZrbWPZkr" version="24.4.13" type="device">
  <diagram name="ページ1" id="v0yJSYxRIwUmhZFxH4b5">
    <mxGraphModel dx="1210" dy="708" grid="1" gridSize="10" guides="1" tooltips="1" connect="1" arrows="1" fold="1" page="1" pageScale="1" pageWidth="827" pageHeight="1169" math="0" shadow="0">
      <root>
        <mxCell id="0" />
        <mxCell id="1" parent="0" />
        <object label="Admin" id="L6jR_X2_aYu_tnK3ohkR-1">
          <mxCell style="rounded=0;whiteSpace=wrap;html=1;" parent="1" vertex="1">
            <mxGeometry x="30" y="50" width="120" height="60" as="geometry" />
          </mxCell>
        </object>
        <mxCell id="L6jR_X2_aYu_tnK3ohkR-2" value="" style="endArrow=none;dashed=1;html=1;dashPattern=1 3;strokeWidth=2;rounded=0;" parent="1" edge="1">
          <mxGeometry width="50" height="50" relative="1" as="geometry">
            <mxPoint x="90" y="440" as="sourcePoint" />
            <mxPoint x="90" y="110" as="targetPoint" />
          </mxGeometry>
        </mxCell>
        <object label="DB" id="L6jR_X2_aYu_tnK3ohkR-3">
          <mxCell style="rounded=0;whiteSpace=wrap;html=1;" parent="1" vertex="1">
            <mxGeometry x="230" y="2070" width="120" height="60" as="geometry" />
          </mxCell>
        </object>
        <mxCell id="L6jR_X2_aYu_tnK3ohkR-4" value="" style="endArrow=none;dashed=1;html=1;dashPattern=1 3;strokeWidth=2;rounded=0;" parent="1" edge="1">
          <mxGeometry width="50" height="50" relative="1" as="geometry">
            <mxPoint x="290" y="440" as="sourcePoint" />
            <mxPoint x="289.5" y="110" as="targetPoint" />
          </mxGeometry>
        </mxCell>
        <object label="system" id="L6jR_X2_aYu_tnK3ohkR-5">
          <mxCell style="rounded=0;whiteSpace=wrap;html=1;" parent="1" vertex="1">
            <mxGeometry x="414" y="50" width="120" height="60" as="geometry" />
          </mxCell>
        </object>
        <mxCell id="L6jR_X2_aYu_tnK3ohkR-6" value="" style="endArrow=none;dashed=1;html=1;dashPattern=1 3;strokeWidth=2;rounded=0;" parent="1" edge="1">
          <mxGeometry width="50" height="50" relative="1" as="geometry">
            <mxPoint x="474" y="440" as="sourcePoint" />
            <mxPoint x="473.5" y="110" as="targetPoint" />
          </mxGeometry>
        </mxCell>
        <mxCell id="L6jR_X2_aYu_tnK3ohkR-9" value="" style="endArrow=classic;html=1;rounded=0;dashed=1;" parent="1" edge="1">
          <mxGeometry width="50" height="50" relative="1" as="geometry">
            <mxPoint x="90" y="150" as="sourcePoint" />
            <mxPoint x="470" y="150" as="targetPoint" />
          </mxGeometry>
        </mxCell>
        <mxCell id="L6jR_X2_aYu_tnK3ohkR-11" value="&lt;span style=&quot;font-size: 12px;&quot;&gt;프로젝트 생성 요청&lt;/span&gt;" style="edgeLabel;html=1;align=center;verticalAlign=middle;resizable=0;points=[];fontFamily=Helvetica;fontSize=11;fontColor=default;labelBackgroundColor=default;" parent="L6jR_X2_aYu_tnK3ohkR-9" vertex="1" connectable="0">
          <mxGeometry x="-0.1123" y="-3" relative="1" as="geometry">
            <mxPoint as="offset" />
          </mxGeometry>
        </mxCell>
        <mxCell id="L6jR_X2_aYu_tnK3ohkR-13" value="" style="endArrow=classic;html=1;rounded=0;dashed=1;" parent="1" edge="1">
          <mxGeometry width="50" height="50" relative="1" as="geometry">
            <mxPoint x="470" y="190" as="sourcePoint" />
            <mxPoint x="290" y="190" as="targetPoint" />
          </mxGeometry>
        </mxCell>
        <mxCell id="L6jR_X2_aYu_tnK3ohkR-14" value="&lt;span style=&quot;font-size: 12px;&quot;&gt;DB: 프로젝트 정보 저장&lt;/span&gt;" style="edgeLabel;html=1;align=center;verticalAlign=middle;resizable=0;points=[];fontFamily=Helvetica;fontSize=11;fontColor=default;labelBackgroundColor=default;" parent="L6jR_X2_aYu_tnK3ohkR-13" vertex="1" connectable="0">
          <mxGeometry x="-0.1123" y="-3" relative="1" as="geometry">
            <mxPoint as="offset" />
          </mxGeometry>
        </mxCell>
        <mxCell id="L6jR_X2_aYu_tnK3ohkR-15" value="" style="endArrow=classic;html=1;rounded=0;dashed=1;" parent="1" edge="1">
          <mxGeometry width="50" height="50" relative="1" as="geometry">
            <mxPoint x="290" y="220" as="sourcePoint" />
            <mxPoint x="470" y="220" as="targetPoint" />
          </mxGeometry>
        </mxCell>
        <mxCell id="L6jR_X2_aYu_tnK3ohkR-16" value="&lt;span style=&quot;font-size: 12px;&quot;&gt;저장 완료 응답&lt;/span&gt;" style="edgeLabel;html=1;align=center;verticalAlign=middle;resizable=0;points=[];fontFamily=Helvetica;fontSize=11;fontColor=default;labelBackgroundColor=default;" parent="L6jR_X2_aYu_tnK3ohkR-15" vertex="1" connectable="0">
          <mxGeometry x="-0.1123" y="-3" relative="1" as="geometry">
            <mxPoint as="offset" />
          </mxGeometry>
        </mxCell>
        <mxCell id="L6jR_X2_aYu_tnK3ohkR-17" value="" style="endArrow=classic;html=1;rounded=0;dashed=1;" parent="1" edge="1">
          <mxGeometry width="50" height="50" relative="1" as="geometry">
            <mxPoint x="470" y="250" as="sourcePoint" />
            <mxPoint x="90" y="250" as="targetPoint" />
          </mxGeometry>
        </mxCell>
        <mxCell id="L6jR_X2_aYu_tnK3ohkR-18" value="&lt;span style=&quot;font-size: 12px;&quot;&gt;프로젝트 생성 완료 응답&lt;/span&gt;" style="edgeLabel;html=1;align=center;verticalAlign=middle;resizable=0;points=[];fontFamily=Helvetica;fontSize=11;fontColor=default;labelBackgroundColor=default;" parent="L6jR_X2_aYu_tnK3ohkR-17" vertex="1" connectable="0">
          <mxGeometry x="-0.1123" y="-3" relative="1" as="geometry">
            <mxPoint as="offset" />
          </mxGeometry>
        </mxCell>
        <mxCell id="L6jR_X2_aYu_tnK3ohkR-19" value="" style="endArrow=classic;html=1;rounded=0;dashed=1;" parent="1" edge="1">
          <mxGeometry width="50" height="50" relative="1" as="geometry">
            <mxPoint x="90" y="310" as="sourcePoint" />
            <mxPoint x="470" y="310" as="targetPoint" />
          </mxGeometry>
        </mxCell>
        <mxCell id="L6jR_X2_aYu_tnK3ohkR-20" value="&lt;span style=&quot;font-size: 12px;&quot;&gt;유저 생성 요청&lt;/span&gt;" style="edgeLabel;html=1;align=center;verticalAlign=middle;resizable=0;points=[];fontFamily=Helvetica;fontSize=11;fontColor=default;labelBackgroundColor=default;" parent="L6jR_X2_aYu_tnK3ohkR-19" vertex="1" connectable="0">
          <mxGeometry x="-0.1123" y="-3" relative="1" as="geometry">
            <mxPoint as="offset" />
          </mxGeometry>
        </mxCell>
        <mxCell id="L6jR_X2_aYu_tnK3ohkR-21" value="" style="endArrow=classic;html=1;rounded=0;dashed=1;" parent="1" edge="1">
          <mxGeometry width="50" height="50" relative="1" as="geometry">
            <mxPoint x="470" y="340" as="sourcePoint" />
            <mxPoint x="290" y="340" as="targetPoint" />
          </mxGeometry>
        </mxCell>
        <mxCell id="L6jR_X2_aYu_tnK3ohkR-22" value="&lt;span style=&quot;font-size: 12px;&quot;&gt;유저 정보 저장&lt;/span&gt;" style="edgeLabel;html=1;align=center;verticalAlign=middle;resizable=0;points=[];fontFamily=Helvetica;fontSize=11;fontColor=default;labelBackgroundColor=default;" parent="L6jR_X2_aYu_tnK3ohkR-21" vertex="1" connectable="0">
          <mxGeometry x="-0.1123" y="-3" relative="1" as="geometry">
            <mxPoint as="offset" />
          </mxGeometry>
        </mxCell>
        <mxCell id="L6jR_X2_aYu_tnK3ohkR-23" value="" style="endArrow=classic;html=1;rounded=0;dashed=1;" parent="1" edge="1">
          <mxGeometry width="50" height="50" relative="1" as="geometry">
            <mxPoint x="290" y="360" as="sourcePoint" />
            <mxPoint x="470" y="360" as="targetPoint" />
          </mxGeometry>
        </mxCell>
        <mxCell id="L6jR_X2_aYu_tnK3ohkR-24" value="&lt;span style=&quot;font-size: 12px;&quot;&gt;저장 완료 응답&lt;/span&gt;" style="edgeLabel;html=1;align=center;verticalAlign=middle;resizable=0;points=[];fontFamily=Helvetica;fontSize=11;fontColor=default;labelBackgroundColor=default;" parent="L6jR_X2_aYu_tnK3ohkR-23" vertex="1" connectable="0">
          <mxGeometry x="-0.1123" y="-3" relative="1" as="geometry">
            <mxPoint as="offset" />
          </mxGeometry>
        </mxCell>
        <mxCell id="L6jR_X2_aYu_tnK3ohkR-25" value="" style="endArrow=classic;html=1;rounded=0;dashed=1;" parent="1" edge="1">
          <mxGeometry width="50" height="50" relative="1" as="geometry">
            <mxPoint x="470" y="390" as="sourcePoint" />
            <mxPoint x="90" y="390" as="targetPoint" />
          </mxGeometry>
        </mxCell>
        <mxCell id="L6jR_X2_aYu_tnK3ohkR-26" value="&lt;span style=&quot;font-size: 12px;&quot;&gt;유저 생성 완료 응답&lt;/span&gt;" style="edgeLabel;html=1;align=center;verticalAlign=middle;resizable=0;points=[];fontFamily=Helvetica;fontSize=11;fontColor=default;labelBackgroundColor=default;" parent="L6jR_X2_aYu_tnK3ohkR-25" vertex="1" connectable="0">
          <mxGeometry x="-0.1123" y="-3" relative="1" as="geometry">
            <mxPoint as="offset" />
          </mxGeometry>
        </mxCell>
        <object label="&lt;span style=&quot;font-size: 12px; background-color: rgb(251, 251, 251);&quot;&gt;tester&lt;/span&gt;" id="L6jR_X2_aYu_tnK3ohkR-27">
          <mxCell style="rounded=0;whiteSpace=wrap;html=1;fontFamily=Helvetica;fontSize=11;fontColor=default;labelBackgroundColor=default;" parent="1" vertex="1">
            <mxGeometry x="30" y="490" width="120" height="60" as="geometry" />
          </mxCell>
        </object>
        <mxCell id="L6jR_X2_aYu_tnK3ohkR-28" value="" style="endArrow=none;dashed=1;html=1;dashPattern=1 3;strokeWidth=2;rounded=0;" parent="1" edge="1">
          <mxGeometry width="50" height="50" relative="1" as="geometry">
            <mxPoint x="100" y="880" as="sourcePoint" />
            <mxPoint x="100" y="550" as="targetPoint" />
          </mxGeometry>
        </mxCell>
        <object label="DB" id="L6jR_X2_aYu_tnK3ohkR-29">
          <mxCell style="rounded=0;whiteSpace=wrap;html=1;" parent="1" vertex="1">
            <mxGeometry x="230" y="50" width="120" height="60" as="geometry" />
          </mxCell>
        </object>
        <object label="system" id="L6jR_X2_aYu_tnK3ohkR-30">
          <mxCell style="rounded=0;whiteSpace=wrap;html=1;" parent="1" vertex="1">
            <mxGeometry x="434" y="910" width="120" height="60" as="geometry" />
          </mxCell>
        </object>
        <mxCell id="L6jR_X2_aYu_tnK3ohkR-31" value="" style="endArrow=none;dashed=1;html=1;dashPattern=1 3;strokeWidth=2;rounded=0;" parent="1" edge="1">
          <mxGeometry width="50" height="50" relative="1" as="geometry">
            <mxPoint x="290" y="880" as="sourcePoint" />
            <mxPoint x="289.5" y="550" as="targetPoint" />
          </mxGeometry>
        </mxCell>
        <mxCell id="L6jR_X2_aYu_tnK3ohkR-32" value="" style="endArrow=none;dashed=1;html=1;dashPattern=1 3;strokeWidth=2;rounded=0;" parent="1" edge="1">
          <mxGeometry width="50" height="50" relative="1" as="geometry">
            <mxPoint x="484" y="880" as="sourcePoint" />
            <mxPoint x="483.5" y="550" as="targetPoint" />
          </mxGeometry>
        </mxCell>
        <mxCell id="L6jR_X2_aYu_tnK3ohkR-33" value="" style="endArrow=classic;html=1;rounded=0;dashed=1;" parent="1" edge="1">
          <mxGeometry width="50" height="50" relative="1" as="geometry">
            <mxPoint x="100" y="584" as="sourcePoint" />
            <mxPoint x="480" y="584" as="targetPoint" />
          </mxGeometry>
        </mxCell>
        <mxCell id="L6jR_X2_aYu_tnK3ohkR-34" value="&lt;span style=&quot;font-size: 12px;&quot;&gt;이슈 생성 요청&lt;/span&gt;" style="edgeLabel;html=1;align=center;verticalAlign=middle;resizable=0;points=[];fontFamily=Helvetica;fontSize=11;fontColor=default;labelBackgroundColor=default;" parent="L6jR_X2_aYu_tnK3ohkR-33" vertex="1" connectable="0">
          <mxGeometry x="-0.1123" y="-3" relative="1" as="geometry">
            <mxPoint as="offset" />
          </mxGeometry>
        </mxCell>
        <mxCell id="L6jR_X2_aYu_tnK3ohkR-35" value="" style="endArrow=classic;html=1;rounded=0;dashed=1;" parent="1" edge="1">
          <mxGeometry width="50" height="50" relative="1" as="geometry">
            <mxPoint x="480" y="610" as="sourcePoint" />
            <mxPoint x="290" y="610" as="targetPoint" />
          </mxGeometry>
        </mxCell>
        <mxCell id="L6jR_X2_aYu_tnK3ohkR-36" value="&lt;span style=&quot;font-size: 12px;&quot;&gt;이슈 정보 저장&lt;/span&gt;" style="edgeLabel;html=1;align=center;verticalAlign=middle;resizable=0;points=[];fontFamily=Helvetica;fontSize=11;fontColor=default;labelBackgroundColor=default;" parent="L6jR_X2_aYu_tnK3ohkR-35" vertex="1" connectable="0">
          <mxGeometry x="-0.1123" y="-3" relative="1" as="geometry">
            <mxPoint as="offset" />
          </mxGeometry>
        </mxCell>
        <mxCell id="L6jR_X2_aYu_tnK3ohkR-37" value="" style="endArrow=classic;html=1;rounded=0;dashed=1;" parent="1" edge="1">
          <mxGeometry width="50" height="50" relative="1" as="geometry">
            <mxPoint x="290" y="640" as="sourcePoint" />
            <mxPoint x="480" y="640" as="targetPoint" />
          </mxGeometry>
        </mxCell>
        <mxCell id="L6jR_X2_aYu_tnK3ohkR-38" value="&lt;span style=&quot;font-size: 12px;&quot;&gt;저장 완료 응답&lt;/span&gt;" style="edgeLabel;html=1;align=center;verticalAlign=middle;resizable=0;points=[];fontFamily=Helvetica;fontSize=11;fontColor=default;labelBackgroundColor=default;" parent="L6jR_X2_aYu_tnK3ohkR-37" vertex="1" connectable="0">
          <mxGeometry x="-0.1123" y="-3" relative="1" as="geometry">
            <mxPoint as="offset" />
          </mxGeometry>
        </mxCell>
        <mxCell id="L6jR_X2_aYu_tnK3ohkR-39" value="" style="endArrow=classic;html=1;rounded=0;dashed=1;" parent="1" edge="1">
          <mxGeometry width="50" height="50" relative="1" as="geometry">
            <mxPoint x="480" y="670" as="sourcePoint" />
            <mxPoint x="100" y="670" as="targetPoint" />
          </mxGeometry>
        </mxCell>
        <mxCell id="L6jR_X2_aYu_tnK3ohkR-40" value="&lt;span style=&quot;font-size: 12px;&quot;&gt;이슈 생성 완료 응답&lt;/span&gt;" style="edgeLabel;html=1;align=center;verticalAlign=middle;resizable=0;points=[];fontFamily=Helvetica;fontSize=11;fontColor=default;labelBackgroundColor=default;" parent="L6jR_X2_aYu_tnK3ohkR-39" vertex="1" connectable="0">
          <mxGeometry x="-0.1123" y="-3" relative="1" as="geometry">
            <mxPoint as="offset" />
          </mxGeometry>
        </mxCell>
        <mxCell id="L6jR_X2_aYu_tnK3ohkR-41" value="" style="endArrow=classic;html=1;rounded=0;dashed=1;" parent="1" edge="1">
          <mxGeometry width="50" height="50" relative="1" as="geometry">
            <mxPoint x="100" y="730" as="sourcePoint" />
            <mxPoint x="480" y="730" as="targetPoint" />
          </mxGeometry>
        </mxCell>
        <mxCell id="L6jR_X2_aYu_tnK3ohkR-42" value="&lt;span style=&quot;font-size: 12px;&quot;&gt;코멘트 추가 요청&lt;/span&gt;" style="edgeLabel;html=1;align=center;verticalAlign=middle;resizable=0;points=[];fontFamily=Helvetica;fontSize=11;fontColor=default;labelBackgroundColor=default;" parent="L6jR_X2_aYu_tnK3ohkR-41" vertex="1" connectable="0">
          <mxGeometry x="-0.1123" y="-3" relative="1" as="geometry">
            <mxPoint as="offset" />
          </mxGeometry>
        </mxCell>
        <mxCell id="L6jR_X2_aYu_tnK3ohkR-43" value="" style="endArrow=classic;html=1;rounded=0;dashed=1;" parent="1" edge="1">
          <mxGeometry width="50" height="50" relative="1" as="geometry">
            <mxPoint x="480" y="760" as="sourcePoint" />
            <mxPoint x="290" y="760" as="targetPoint" />
          </mxGeometry>
        </mxCell>
        <mxCell id="L6jR_X2_aYu_tnK3ohkR-44" value="&lt;span style=&quot;font-size: 12px;&quot;&gt;코멘트 정보 저장&lt;/span&gt;" style="edgeLabel;html=1;align=center;verticalAlign=middle;resizable=0;points=[];fontFamily=Helvetica;fontSize=11;fontColor=default;labelBackgroundColor=default;" parent="L6jR_X2_aYu_tnK3ohkR-43" vertex="1" connectable="0">
          <mxGeometry x="-0.1123" y="-3" relative="1" as="geometry">
            <mxPoint as="offset" />
          </mxGeometry>
        </mxCell>
        <mxCell id="L6jR_X2_aYu_tnK3ohkR-45" value="" style="endArrow=classic;html=1;rounded=0;dashed=1;" parent="1" edge="1">
          <mxGeometry width="50" height="50" relative="1" as="geometry">
            <mxPoint x="290" y="790" as="sourcePoint" />
            <mxPoint x="480" y="790" as="targetPoint" />
          </mxGeometry>
        </mxCell>
        <mxCell id="L6jR_X2_aYu_tnK3ohkR-46" value="&lt;span style=&quot;font-size: 12px;&quot;&gt;저장 완료 응답&lt;/span&gt;" style="edgeLabel;html=1;align=center;verticalAlign=middle;resizable=0;points=[];fontFamily=Helvetica;fontSize=11;fontColor=default;labelBackgroundColor=default;" parent="L6jR_X2_aYu_tnK3ohkR-45" vertex="1" connectable="0">
          <mxGeometry x="-0.1123" y="-3" relative="1" as="geometry">
            <mxPoint as="offset" />
          </mxGeometry>
        </mxCell>
        <mxCell id="L6jR_X2_aYu_tnK3ohkR-47" value="" style="endArrow=classic;html=1;rounded=0;dashed=1;" parent="1" edge="1">
          <mxGeometry width="50" height="50" relative="1" as="geometry">
            <mxPoint x="480" y="830" as="sourcePoint" />
            <mxPoint x="100" y="830" as="targetPoint" />
          </mxGeometry>
        </mxCell>
        <mxCell id="L6jR_X2_aYu_tnK3ohkR-48" value="&lt;span style=&quot;font-size: 12px;&quot;&gt;코멘트 추가 완료 응답&lt;/span&gt;" style="edgeLabel;html=1;align=center;verticalAlign=middle;resizable=0;points=[];fontFamily=Helvetica;fontSize=11;fontColor=default;labelBackgroundColor=default;" parent="L6jR_X2_aYu_tnK3ohkR-47" vertex="1" connectable="0">
          <mxGeometry x="-0.1123" y="-3" relative="1" as="geometry">
            <mxPoint as="offset" />
          </mxGeometry>
        </mxCell>
        <object label="&lt;span style=&quot;font-size: 12px; background-color: rgb(251, 251, 251);&quot;&gt;PL&lt;/span&gt;" id="L6jR_X2_aYu_tnK3ohkR-50">
          <mxCell style="rounded=0;whiteSpace=wrap;html=1;fontFamily=Helvetica;fontSize=11;fontColor=default;labelBackgroundColor=default;" parent="1" vertex="1">
            <mxGeometry x="30" y="910" width="120" height="60" as="geometry" />
          </mxCell>
        </object>
        <object label="DB" id="L6jR_X2_aYu_tnK3ohkR-51">
          <mxCell style="rounded=0;whiteSpace=wrap;html=1;" parent="1" vertex="1">
            <mxGeometry x="230" y="910" width="120" height="60" as="geometry" />
          </mxCell>
        </object>
        <object label="system" id="L6jR_X2_aYu_tnK3ohkR-52">
          <mxCell style="rounded=0;whiteSpace=wrap;html=1;" parent="1" vertex="1">
            <mxGeometry x="434" y="500" width="120" height="60" as="geometry" />
          </mxCell>
        </object>
        <mxCell id="L6jR_X2_aYu_tnK3ohkR-53" value="" style="endArrow=none;dashed=1;html=1;dashPattern=1 3;strokeWidth=2;rounded=0;" parent="1" edge="1">
          <mxGeometry width="50" height="50" relative="1" as="geometry">
            <mxPoint x="100" y="1440" as="sourcePoint" />
            <mxPoint x="100" y="970" as="targetPoint" />
          </mxGeometry>
        </mxCell>
        <mxCell id="L6jR_X2_aYu_tnK3ohkR-54" value="" style="endArrow=none;dashed=1;html=1;dashPattern=1 3;strokeWidth=2;rounded=0;" parent="1" edge="1">
          <mxGeometry width="50" height="50" relative="1" as="geometry">
            <mxPoint x="290" y="1440" as="sourcePoint" />
            <mxPoint x="289.5" y="970" as="targetPoint" />
          </mxGeometry>
        </mxCell>
        <mxCell id="L6jR_X2_aYu_tnK3ohkR-55" value="" style="endArrow=none;dashed=1;html=1;dashPattern=1 3;strokeWidth=2;rounded=0;" parent="1" edge="1">
          <mxGeometry width="50" height="50" relative="1" as="geometry">
            <mxPoint x="494" y="1440" as="sourcePoint" />
            <mxPoint x="493.5" y="970" as="targetPoint" />
          </mxGeometry>
        </mxCell>
        <mxCell id="L6jR_X2_aYu_tnK3ohkR-56" value="" style="endArrow=classic;html=1;rounded=0;dashed=1;" parent="1" edge="1">
          <mxGeometry width="50" height="50" relative="1" as="geometry">
            <mxPoint x="100" y="1000" as="sourcePoint" />
            <mxPoint x="490" y="1000" as="targetPoint" />
          </mxGeometry>
        </mxCell>
        <mxCell id="L6jR_X2_aYu_tnK3ohkR-57" value="&lt;span style=&quot;font-size: 12px;&quot;&gt;모든 이슈 검색 요청&lt;/span&gt;" style="edgeLabel;html=1;align=center;verticalAlign=middle;resizable=0;points=[];fontFamily=Helvetica;fontSize=11;fontColor=default;labelBackgroundColor=default;" parent="L6jR_X2_aYu_tnK3ohkR-56" vertex="1" connectable="0">
          <mxGeometry x="-0.1123" y="-3" relative="1" as="geometry">
            <mxPoint as="offset" />
          </mxGeometry>
        </mxCell>
        <mxCell id="L6jR_X2_aYu_tnK3ohkR-58" value="" style="endArrow=classic;html=1;rounded=0;dashed=1;" parent="1" edge="1">
          <mxGeometry width="50" height="50" relative="1" as="geometry">
            <mxPoint x="490" y="1030" as="sourcePoint" />
            <mxPoint x="290" y="1030" as="targetPoint" />
          </mxGeometry>
        </mxCell>
        <mxCell id="L6jR_X2_aYu_tnK3ohkR-59" value="&lt;span style=&quot;font-size: 12px;&quot;&gt;모든 이슈 조회&lt;/span&gt;" style="edgeLabel;html=1;align=center;verticalAlign=middle;resizable=0;points=[];fontFamily=Helvetica;fontSize=11;fontColor=default;labelBackgroundColor=default;" parent="L6jR_X2_aYu_tnK3ohkR-58" vertex="1" connectable="0">
          <mxGeometry x="-0.1123" y="-3" relative="1" as="geometry">
            <mxPoint as="offset" />
          </mxGeometry>
        </mxCell>
        <mxCell id="L6jR_X2_aYu_tnK3ohkR-61" value="" style="endArrow=classic;html=1;rounded=0;dashed=1;" parent="1" edge="1">
          <mxGeometry width="50" height="50" relative="1" as="geometry">
            <mxPoint x="290" y="1060" as="sourcePoint" />
            <mxPoint x="490" y="1060" as="targetPoint" />
          </mxGeometry>
        </mxCell>
        <mxCell id="L6jR_X2_aYu_tnK3ohkR-62" value="&lt;span style=&quot;font-size: 12px;&quot;&gt;이슈 목록 응답&lt;/span&gt;" style="edgeLabel;html=1;align=center;verticalAlign=middle;resizable=0;points=[];fontFamily=Helvetica;fontSize=11;fontColor=default;labelBackgroundColor=default;" parent="L6jR_X2_aYu_tnK3ohkR-61" vertex="1" connectable="0">
          <mxGeometry x="-0.1123" y="-3" relative="1" as="geometry">
            <mxPoint as="offset" />
          </mxGeometry>
        </mxCell>
        <mxCell id="L6jR_X2_aYu_tnK3ohkR-63" value="" style="endArrow=classic;html=1;rounded=0;dashed=1;" parent="1" edge="1">
          <mxGeometry width="50" height="50" relative="1" as="geometry">
            <mxPoint x="490" y="1090" as="sourcePoint" />
            <mxPoint x="100" y="1090" as="targetPoint" />
          </mxGeometry>
        </mxCell>
        <mxCell id="L6jR_X2_aYu_tnK3ohkR-64" value="&lt;span style=&quot;font-size: 12px;&quot;&gt;이슈 목록 응답&lt;/span&gt;" style="edgeLabel;html=1;align=center;verticalAlign=middle;resizable=0;points=[];fontFamily=Helvetica;fontSize=11;fontColor=default;labelBackgroundColor=default;" parent="L6jR_X2_aYu_tnK3ohkR-63" vertex="1" connectable="0">
          <mxGeometry x="-0.1123" y="-3" relative="1" as="geometry">
            <mxPoint as="offset" />
          </mxGeometry>
        </mxCell>
        <mxCell id="ke-rMQLw0LFI_Vqo6oYt-2" value="" style="endArrow=classic;html=1;rounded=0;dashed=1;" parent="1" edge="1">
          <mxGeometry width="50" height="50" relative="1" as="geometry">
            <mxPoint x="100" y="1160" as="sourcePoint" />
            <mxPoint x="490" y="1160" as="targetPoint" />
          </mxGeometry>
        </mxCell>
        <mxCell id="ke-rMQLw0LFI_Vqo6oYt-3" value="&lt;span style=&quot;font-size: 12px;&quot;&gt;new 상태의 이슈 검색 요청&lt;/span&gt;" style="edgeLabel;html=1;align=center;verticalAlign=middle;resizable=0;points=[];fontFamily=Helvetica;fontSize=11;fontColor=default;labelBackgroundColor=default;" parent="ke-rMQLw0LFI_Vqo6oYt-2" vertex="1" connectable="0">
          <mxGeometry x="-0.1123" y="-3" relative="1" as="geometry">
            <mxPoint as="offset" />
          </mxGeometry>
        </mxCell>
        <mxCell id="ke-rMQLw0LFI_Vqo6oYt-4" value="" style="endArrow=classic;html=1;rounded=0;dashed=1;" parent="1" edge="1">
          <mxGeometry width="50" height="50" relative="1" as="geometry">
            <mxPoint x="490" y="1190" as="sourcePoint" />
            <mxPoint x="290" y="1190" as="targetPoint" />
          </mxGeometry>
        </mxCell>
        <mxCell id="ke-rMQLw0LFI_Vqo6oYt-5" value="&lt;span style=&quot;font-size: 12px;&quot;&gt;new 상태의 이슈 조회&lt;/span&gt;" style="edgeLabel;html=1;align=center;verticalAlign=middle;resizable=0;points=[];fontFamily=Helvetica;fontSize=11;fontColor=default;labelBackgroundColor=default;" parent="ke-rMQLw0LFI_Vqo6oYt-4" vertex="1" connectable="0">
          <mxGeometry x="-0.1123" y="-3" relative="1" as="geometry">
            <mxPoint as="offset" />
          </mxGeometry>
        </mxCell>
        <mxCell id="ke-rMQLw0LFI_Vqo6oYt-7" value="" style="endArrow=classic;html=1;rounded=0;dashed=1;" parent="1" edge="1">
          <mxGeometry width="50" height="50" relative="1" as="geometry">
            <mxPoint x="290" y="1220" as="sourcePoint" />
            <mxPoint x="490" y="1220" as="targetPoint" />
          </mxGeometry>
        </mxCell>
        <mxCell id="ke-rMQLw0LFI_Vqo6oYt-8" value="&lt;span style=&quot;font-size: 12px;&quot;&gt;new 상태의 이슈 목록 응답&lt;/span&gt;" style="edgeLabel;html=1;align=center;verticalAlign=middle;resizable=0;points=[];fontFamily=Helvetica;fontSize=11;fontColor=default;labelBackgroundColor=default;" parent="ke-rMQLw0LFI_Vqo6oYt-7" vertex="1" connectable="0">
          <mxGeometry x="-0.1123" y="-3" relative="1" as="geometry">
            <mxPoint as="offset" />
          </mxGeometry>
        </mxCell>
        <mxCell id="ke-rMQLw0LFI_Vqo6oYt-9" value="" style="endArrow=classic;html=1;rounded=0;dashed=1;" parent="1" edge="1">
          <mxGeometry width="50" height="50" relative="1" as="geometry">
            <mxPoint x="490" y="1250" as="sourcePoint" />
            <mxPoint x="100" y="1250" as="targetPoint" />
          </mxGeometry>
        </mxCell>
        <mxCell id="ke-rMQLw0LFI_Vqo6oYt-10" value="&lt;span style=&quot;font-size: 12px;&quot;&gt;new 상태의 이슈 목록 응답&lt;/span&gt;" style="edgeLabel;html=1;align=center;verticalAlign=middle;resizable=0;points=[];fontFamily=Helvetica;fontSize=11;fontColor=default;labelBackgroundColor=default;" parent="ke-rMQLw0LFI_Vqo6oYt-9" vertex="1" connectable="0">
          <mxGeometry x="-0.1123" y="-3" relative="1" as="geometry">
            <mxPoint as="offset" />
          </mxGeometry>
        </mxCell>
        <mxCell id="ke-rMQLw0LFI_Vqo6oYt-12" value="" style="endArrow=classic;html=1;rounded=0;dashed=1;" parent="1" edge="1">
          <mxGeometry width="50" height="50" relative="1" as="geometry">
            <mxPoint x="100" y="1300" as="sourcePoint" />
            <mxPoint x="490" y="1300" as="targetPoint" />
          </mxGeometry>
        </mxCell>
        <mxCell id="ke-rMQLw0LFI_Vqo6oYt-13" value="&lt;span style=&quot;font-size: 12px;&quot;&gt;코멘트 추가 요청&lt;/span&gt;" style="edgeLabel;html=1;align=center;verticalAlign=middle;resizable=0;points=[];fontFamily=Helvetica;fontSize=11;fontColor=default;labelBackgroundColor=default;" parent="ke-rMQLw0LFI_Vqo6oYt-12" vertex="1" connectable="0">
          <mxGeometry x="-0.1123" y="-3" relative="1" as="geometry">
            <mxPoint as="offset" />
          </mxGeometry>
        </mxCell>
        <mxCell id="ke-rMQLw0LFI_Vqo6oYt-14" value="" style="endArrow=classic;html=1;rounded=0;dashed=1;" parent="1" edge="1">
          <mxGeometry width="50" height="50" relative="1" as="geometry">
            <mxPoint x="490" y="1330" as="sourcePoint" />
            <mxPoint x="290" y="1330" as="targetPoint" />
          </mxGeometry>
        </mxCell>
        <mxCell id="ke-rMQLw0LFI_Vqo6oYt-15" value="&lt;span style=&quot;font-size: 12px;&quot;&gt;코멘트 정보 저장&lt;/span&gt;" style="edgeLabel;html=1;align=center;verticalAlign=middle;resizable=0;points=[];fontFamily=Helvetica;fontSize=11;fontColor=default;labelBackgroundColor=default;" parent="ke-rMQLw0LFI_Vqo6oYt-14" vertex="1" connectable="0">
          <mxGeometry x="-0.1123" y="-3" relative="1" as="geometry">
            <mxPoint as="offset" />
          </mxGeometry>
        </mxCell>
        <mxCell id="ke-rMQLw0LFI_Vqo6oYt-16" value="" style="endArrow=classic;html=1;rounded=0;dashed=1;" parent="1" edge="1">
          <mxGeometry width="50" height="50" relative="1" as="geometry">
            <mxPoint x="290" y="1350" as="sourcePoint" />
            <mxPoint x="490" y="1350" as="targetPoint" />
          </mxGeometry>
        </mxCell>
        <mxCell id="ke-rMQLw0LFI_Vqo6oYt-17" value="&lt;span style=&quot;font-size: 12px;&quot;&gt;저장 완료 응답&lt;/span&gt;" style="edgeLabel;html=1;align=center;verticalAlign=middle;resizable=0;points=[];fontFamily=Helvetica;fontSize=11;fontColor=default;labelBackgroundColor=default;" parent="ke-rMQLw0LFI_Vqo6oYt-16" vertex="1" connectable="0">
          <mxGeometry x="-0.1123" y="-3" relative="1" as="geometry">
            <mxPoint as="offset" />
          </mxGeometry>
        </mxCell>
        <mxCell id="ke-rMQLw0LFI_Vqo6oYt-18" value="" style="endArrow=classic;html=1;rounded=0;dashed=1;" parent="1" edge="1">
          <mxGeometry width="50" height="50" relative="1" as="geometry">
            <mxPoint x="490" y="1390" as="sourcePoint" />
            <mxPoint x="100" y="1390" as="targetPoint" />
          </mxGeometry>
        </mxCell>
        <mxCell id="ke-rMQLw0LFI_Vqo6oYt-19" value="&lt;span style=&quot;font-size: 12px;&quot;&gt;코멘트 추가 완료 응답&lt;/span&gt;" style="edgeLabel;html=1;align=center;verticalAlign=middle;resizable=0;points=[];fontFamily=Helvetica;fontSize=11;fontColor=default;labelBackgroundColor=default;" parent="ke-rMQLw0LFI_Vqo6oYt-18" vertex="1" connectable="0">
          <mxGeometry x="-0.1123" y="-3" relative="1" as="geometry">
            <mxPoint as="offset" />
          </mxGeometry>
        </mxCell>
        <object label="&lt;span style=&quot;font-size: 12px; background-color: rgb(251, 251, 251);&quot;&gt;Dev&lt;/span&gt;" id="ke-rMQLw0LFI_Vqo6oYt-20">
          <mxCell style="rounded=0;whiteSpace=wrap;html=1;fontFamily=Helvetica;fontSize=11;fontColor=default;labelBackgroundColor=default;" parent="1" vertex="1">
            <mxGeometry x="40" y="1490" width="120" height="60" as="geometry" />
          </mxCell>
        </object>
        <mxCell id="ke-rMQLw0LFI_Vqo6oYt-21" value="" style="endArrow=none;dashed=1;html=1;dashPattern=1 3;strokeWidth=2;rounded=0;" parent="1" edge="1">
          <mxGeometry width="50" height="50" relative="1" as="geometry">
            <mxPoint x="99.5" y="2020" as="sourcePoint" />
            <mxPoint x="99.5" y="1550" as="targetPoint" />
          </mxGeometry>
        </mxCell>
        <object label="DB" id="ke-rMQLw0LFI_Vqo6oYt-22">
          <mxCell style="rounded=0;whiteSpace=wrap;html=1;" parent="1" vertex="1">
            <mxGeometry x="220" y="1490" width="120" height="60" as="geometry" />
          </mxCell>
        </object>
        <mxCell id="ke-rMQLw0LFI_Vqo6oYt-23" value="" style="endArrow=none;dashed=1;html=1;dashPattern=1 3;strokeWidth=2;rounded=0;" parent="1" edge="1">
          <mxGeometry width="50" height="50" relative="1" as="geometry">
            <mxPoint x="280" y="2020" as="sourcePoint" />
            <mxPoint x="279.5" y="1550" as="targetPoint" />
          </mxGeometry>
        </mxCell>
        <object label="system" id="ke-rMQLw0LFI_Vqo6oYt-24">
          <mxCell style="rounded=0;whiteSpace=wrap;html=1;" parent="1" vertex="1">
            <mxGeometry x="414" y="1490" width="120" height="60" as="geometry" />
          </mxCell>
        </object>
        <mxCell id="ke-rMQLw0LFI_Vqo6oYt-25" value="" style="endArrow=none;dashed=1;html=1;dashPattern=1 3;strokeWidth=2;rounded=0;" parent="1" edge="1">
          <mxGeometry width="50" height="50" relative="1" as="geometry">
            <mxPoint x="474" y="2020" as="sourcePoint" />
            <mxPoint x="473.5" y="1550" as="targetPoint" />
          </mxGeometry>
        </mxCell>
        <mxCell id="ke-rMQLw0LFI_Vqo6oYt-26" value="" style="endArrow=classic;html=1;rounded=0;dashed=1;" parent="1" edge="1">
          <mxGeometry width="50" height="50" relative="1" as="geometry">
            <mxPoint x="100" y="1580" as="sourcePoint" />
            <mxPoint x="470" y="1580" as="targetPoint" />
          </mxGeometry>
        </mxCell>
        <mxCell id="ke-rMQLw0LFI_Vqo6oYt-27" value="&lt;span style=&quot;font-size: 12px;&quot;&gt;자신에게 할당된 이슈 검색 요청&lt;/span&gt;" style="edgeLabel;html=1;align=center;verticalAlign=middle;resizable=0;points=[];fontFamily=Helvetica;fontSize=11;fontColor=default;labelBackgroundColor=default;" parent="ke-rMQLw0LFI_Vqo6oYt-26" vertex="1" connectable="0">
          <mxGeometry x="-0.1123" y="-3" relative="1" as="geometry">
            <mxPoint as="offset" />
          </mxGeometry>
        </mxCell>
        <mxCell id="ke-rMQLw0LFI_Vqo6oYt-28" value="" style="endArrow=classic;html=1;rounded=0;dashed=1;" parent="1" edge="1">
          <mxGeometry width="50" height="50" relative="1" as="geometry">
            <mxPoint x="470" y="1610" as="sourcePoint" />
            <mxPoint x="280" y="1610" as="targetPoint" />
          </mxGeometry>
        </mxCell>
        <mxCell id="ke-rMQLw0LFI_Vqo6oYt-29" value="&lt;span style=&quot;font-size: 12px;&quot;&gt;할당된 이슈 조회&lt;/span&gt;" style="edgeLabel;html=1;align=center;verticalAlign=middle;resizable=0;points=[];fontFamily=Helvetica;fontSize=11;fontColor=default;labelBackgroundColor=default;" parent="ke-rMQLw0LFI_Vqo6oYt-28" vertex="1" connectable="0">
          <mxGeometry x="-0.1123" y="-3" relative="1" as="geometry">
            <mxPoint as="offset" />
          </mxGeometry>
        </mxCell>
        <mxCell id="ke-rMQLw0LFI_Vqo6oYt-30" value="" style="endArrow=classic;html=1;rounded=0;dashed=1;" parent="1" edge="1">
          <mxGeometry width="50" height="50" relative="1" as="geometry">
            <mxPoint x="280" y="1640" as="sourcePoint" />
            <mxPoint x="470" y="1640" as="targetPoint" />
          </mxGeometry>
        </mxCell>
        <mxCell id="ke-rMQLw0LFI_Vqo6oYt-31" value="&lt;span style=&quot;font-size: 12px;&quot;&gt;할당된 이슈 목록 응답&lt;/span&gt;" style="edgeLabel;html=1;align=center;verticalAlign=middle;resizable=0;points=[];fontFamily=Helvetica;fontSize=11;fontColor=default;labelBackgroundColor=default;" parent="ke-rMQLw0LFI_Vqo6oYt-30" vertex="1" connectable="0">
          <mxGeometry x="-0.1123" y="-3" relative="1" as="geometry">
            <mxPoint as="offset" />
          </mxGeometry>
        </mxCell>
        <mxCell id="ke-rMQLw0LFI_Vqo6oYt-32" value="" style="endArrow=classic;html=1;rounded=0;dashed=1;" parent="1" edge="1">
          <mxGeometry width="50" height="50" relative="1" as="geometry">
            <mxPoint x="475" y="1680" as="sourcePoint" />
            <mxPoint x="100" y="1680" as="targetPoint" />
          </mxGeometry>
        </mxCell>
        <mxCell id="ke-rMQLw0LFI_Vqo6oYt-33" value="&lt;span style=&quot;font-size: 12px;&quot;&gt;이슈 목록 응답&lt;/span&gt;" style="edgeLabel;html=1;align=center;verticalAlign=middle;resizable=0;points=[];fontFamily=Helvetica;fontSize=11;fontColor=default;labelBackgroundColor=default;" parent="ke-rMQLw0LFI_Vqo6oYt-32" vertex="1" connectable="0">
          <mxGeometry x="-0.1123" y="-3" relative="1" as="geometry">
            <mxPoint as="offset" />
          </mxGeometry>
        </mxCell>
        <mxCell id="ke-rMQLw0LFI_Vqo6oYt-34" value="" style="endArrow=classic;html=1;rounded=0;dashed=1;" parent="1" edge="1">
          <mxGeometry width="50" height="50" relative="1" as="geometry">
            <mxPoint x="105" y="1740" as="sourcePoint" />
            <mxPoint x="475" y="1740" as="targetPoint" />
          </mxGeometry>
        </mxCell>
        <mxCell id="ke-rMQLw0LFI_Vqo6oYt-35" value="&lt;span style=&quot;font-size: 12px;&quot;&gt;이슈 처리 후 상태 변경 요청&lt;/span&gt;" style="edgeLabel;html=1;align=center;verticalAlign=middle;resizable=0;points=[];fontFamily=Helvetica;fontSize=11;fontColor=default;labelBackgroundColor=default;" parent="ke-rMQLw0LFI_Vqo6oYt-34" vertex="1" connectable="0">
          <mxGeometry x="-0.1123" y="-3" relative="1" as="geometry">
            <mxPoint as="offset" />
          </mxGeometry>
        </mxCell>
        <mxCell id="ke-rMQLw0LFI_Vqo6oYt-36" value="" style="endArrow=classic;html=1;rounded=0;dashed=1;" parent="1" edge="1">
          <mxGeometry width="50" height="50" relative="1" as="geometry">
            <mxPoint x="470" y="1770" as="sourcePoint" />
            <mxPoint x="280" y="1770" as="targetPoint" />
          </mxGeometry>
        </mxCell>
        <mxCell id="ke-rMQLw0LFI_Vqo6oYt-37" value="&lt;span style=&quot;font-size: 12px;&quot;&gt;이슈 업데이트&lt;/span&gt;" style="edgeLabel;html=1;align=center;verticalAlign=middle;resizable=0;points=[];fontFamily=Helvetica;fontSize=11;fontColor=default;labelBackgroundColor=default;" parent="ke-rMQLw0LFI_Vqo6oYt-36" vertex="1" connectable="0">
          <mxGeometry x="-0.1123" y="-3" relative="1" as="geometry">
            <mxPoint as="offset" />
          </mxGeometry>
        </mxCell>
        <mxCell id="ke-rMQLw0LFI_Vqo6oYt-38" value="" style="endArrow=classic;html=1;rounded=0;dashed=1;" parent="1" edge="1">
          <mxGeometry width="50" height="50" relative="1" as="geometry">
            <mxPoint x="280" y="1790" as="sourcePoint" />
            <mxPoint x="470" y="1790" as="targetPoint" />
          </mxGeometry>
        </mxCell>
        <mxCell id="ke-rMQLw0LFI_Vqo6oYt-39" value="&lt;span style=&quot;font-size: 12px;&quot;&gt;업데이트 완료 응답&lt;/span&gt;" style="edgeLabel;html=1;align=center;verticalAlign=middle;resizable=0;points=[];fontFamily=Helvetica;fontSize=11;fontColor=default;labelBackgroundColor=default;" parent="ke-rMQLw0LFI_Vqo6oYt-38" vertex="1" connectable="0">
          <mxGeometry x="-0.1123" y="-3" relative="1" as="geometry">
            <mxPoint as="offset" />
          </mxGeometry>
        </mxCell>
        <mxCell id="ke-rMQLw0LFI_Vqo6oYt-40" value="" style="endArrow=classic;html=1;rounded=0;dashed=1;" parent="1" edge="1">
          <mxGeometry width="50" height="50" relative="1" as="geometry">
            <mxPoint x="477.5" y="1820" as="sourcePoint" />
            <mxPoint x="102.5" y="1820" as="targetPoint" />
          </mxGeometry>
        </mxCell>
        <mxCell id="ke-rMQLw0LFI_Vqo6oYt-41" value="&lt;span style=&quot;font-size: 12px;&quot;&gt;이슈 상태 변경 완료 응답&lt;/span&gt;" style="edgeLabel;html=1;align=center;verticalAlign=middle;resizable=0;points=[];fontFamily=Helvetica;fontSize=11;fontColor=default;labelBackgroundColor=default;" parent="ke-rMQLw0LFI_Vqo6oYt-40" vertex="1" connectable="0">
          <mxGeometry x="-0.1123" y="-3" relative="1" as="geometry">
            <mxPoint as="offset" />
          </mxGeometry>
        </mxCell>
        <mxCell id="ke-rMQLw0LFI_Vqo6oYt-42" value="" style="endArrow=classic;html=1;rounded=0;dashed=1;" parent="1" edge="1">
          <mxGeometry width="50" height="50" relative="1" as="geometry">
            <mxPoint x="105" y="1870" as="sourcePoint" />
            <mxPoint x="475" y="1870" as="targetPoint" />
          </mxGeometry>
        </mxCell>
        <mxCell id="ke-rMQLw0LFI_Vqo6oYt-43" value="&lt;span style=&quot;font-size: 12px;&quot;&gt;코멘트 추가 요청&lt;/span&gt;" style="edgeLabel;html=1;align=center;verticalAlign=middle;resizable=0;points=[];fontFamily=Helvetica;fontSize=11;fontColor=default;labelBackgroundColor=default;" parent="ke-rMQLw0LFI_Vqo6oYt-42" vertex="1" connectable="0">
          <mxGeometry x="-0.1123" y="-3" relative="1" as="geometry">
            <mxPoint as="offset" />
          </mxGeometry>
        </mxCell>
        <mxCell id="ke-rMQLw0LFI_Vqo6oYt-44" value="" style="endArrow=classic;html=1;rounded=0;dashed=1;" parent="1" edge="1">
          <mxGeometry width="50" height="50" relative="1" as="geometry">
            <mxPoint x="470" y="1900" as="sourcePoint" />
            <mxPoint x="280" y="1900" as="targetPoint" />
          </mxGeometry>
        </mxCell>
        <mxCell id="ke-rMQLw0LFI_Vqo6oYt-45" value="&lt;span style=&quot;font-size: 12px;&quot;&gt;코멘트 정보 저장&lt;/span&gt;" style="edgeLabel;html=1;align=center;verticalAlign=middle;resizable=0;points=[];fontFamily=Helvetica;fontSize=11;fontColor=default;labelBackgroundColor=default;" parent="ke-rMQLw0LFI_Vqo6oYt-44" vertex="1" connectable="0">
          <mxGeometry x="-0.1123" y="-3" relative="1" as="geometry">
            <mxPoint as="offset" />
          </mxGeometry>
        </mxCell>
        <mxCell id="ke-rMQLw0LFI_Vqo6oYt-47" value="" style="endArrow=classic;html=1;rounded=0;dashed=1;" parent="1" edge="1">
          <mxGeometry width="50" height="50" relative="1" as="geometry">
            <mxPoint x="280" y="1930" as="sourcePoint" />
            <mxPoint x="470" y="1930" as="targetPoint" />
          </mxGeometry>
        </mxCell>
        <mxCell id="ke-rMQLw0LFI_Vqo6oYt-48" value="&lt;span style=&quot;font-size: 12px;&quot;&gt;저장 완료 응답&lt;/span&gt;" style="edgeLabel;html=1;align=center;verticalAlign=middle;resizable=0;points=[];fontFamily=Helvetica;fontSize=11;fontColor=default;labelBackgroundColor=default;" parent="ke-rMQLw0LFI_Vqo6oYt-47" vertex="1" connectable="0">
          <mxGeometry x="-0.1123" y="-3" relative="1" as="geometry">
            <mxPoint as="offset" />
          </mxGeometry>
        </mxCell>
        <mxCell id="ke-rMQLw0LFI_Vqo6oYt-49" value="" style="endArrow=classic;html=1;rounded=0;dashed=1;" parent="1" edge="1">
          <mxGeometry width="50" height="50" relative="1" as="geometry">
            <mxPoint x="477.5" y="1970" as="sourcePoint" />
            <mxPoint x="102.5" y="1970" as="targetPoint" />
          </mxGeometry>
        </mxCell>
        <mxCell id="ke-rMQLw0LFI_Vqo6oYt-50" value="&lt;span style=&quot;font-size: 12px;&quot;&gt;코멘트 추가 완료 응답&lt;/span&gt;" style="edgeLabel;html=1;align=center;verticalAlign=middle;resizable=0;points=[];fontFamily=Helvetica;fontSize=11;fontColor=default;labelBackgroundColor=default;" parent="ke-rMQLw0LFI_Vqo6oYt-49" vertex="1" connectable="0">
          <mxGeometry x="-0.1123" y="-3" relative="1" as="geometry">
            <mxPoint as="offset" />
          </mxGeometry>
        </mxCell>
        <object label="&lt;span style=&quot;font-size: 12px; background-color: rgb(251, 251, 251);&quot;&gt;tester&lt;/span&gt;" id="ke-rMQLw0LFI_Vqo6oYt-51">
          <mxCell style="rounded=0;whiteSpace=wrap;html=1;fontFamily=Helvetica;fontSize=11;fontColor=default;labelBackgroundColor=default;" parent="1" vertex="1">
            <mxGeometry x="40" y="2070" width="120" height="60" as="geometry" />
          </mxCell>
        </object>
        <mxCell id="ke-rMQLw0LFI_Vqo6oYt-53" value="" style="endArrow=none;dashed=1;html=1;dashPattern=1 3;strokeWidth=2;rounded=0;" parent="1" edge="1">
          <mxGeometry width="50" height="50" relative="1" as="geometry">
            <mxPoint x="100" y="2440" as="sourcePoint" />
            <mxPoint x="99.5" y="2130" as="targetPoint" />
          </mxGeometry>
        </mxCell>
        <object label="DB" id="ke-rMQLw0LFI_Vqo6oYt-54">
          <mxCell style="rounded=0;whiteSpace=wrap;html=1;" parent="1" vertex="1">
            <mxGeometry x="240" y="500" width="120" height="60" as="geometry" />
          </mxCell>
        </object>
        <mxCell id="ke-rMQLw0LFI_Vqo6oYt-55" value="" style="endArrow=none;dashed=1;html=1;dashPattern=1 3;strokeWidth=2;rounded=0;" parent="1" edge="1">
          <mxGeometry width="50" height="50" relative="1" as="geometry">
            <mxPoint x="290" y="2440" as="sourcePoint" />
            <mxPoint x="289.5" y="2130" as="targetPoint" />
          </mxGeometry>
        </mxCell>
        <object label="system" id="ke-rMQLw0LFI_Vqo6oYt-56">
          <mxCell style="rounded=0;whiteSpace=wrap;html=1;" parent="1" vertex="1">
            <mxGeometry x="434" y="2500" width="120" height="60" as="geometry" />
          </mxCell>
        </object>
        <mxCell id="ke-rMQLw0LFI_Vqo6oYt-57" value="" style="endArrow=none;dashed=1;html=1;dashPattern=1 3;strokeWidth=2;rounded=0;" parent="1" edge="1">
          <mxGeometry width="50" height="50" relative="1" as="geometry">
            <mxPoint x="480" y="2440" as="sourcePoint" />
            <mxPoint x="479.5" y="2130" as="targetPoint" />
          </mxGeometry>
        </mxCell>
        <mxCell id="ke-rMQLw0LFI_Vqo6oYt-58" value="" style="endArrow=classic;html=1;rounded=0;dashed=1;" parent="1" edge="1">
          <mxGeometry width="50" height="50" relative="1" as="geometry">
            <mxPoint x="105" y="2300" as="sourcePoint" />
            <mxPoint x="475" y="2300" as="targetPoint" />
          </mxGeometry>
        </mxCell>
        <mxCell id="ke-rMQLw0LFI_Vqo6oYt-59" value="&lt;span style=&quot;font-size: 12px;&quot;&gt;이슈 상태 변경 요청&lt;/span&gt;" style="edgeLabel;html=1;align=center;verticalAlign=middle;resizable=0;points=[];fontFamily=Helvetica;fontSize=11;fontColor=default;labelBackgroundColor=default;" parent="ke-rMQLw0LFI_Vqo6oYt-58" vertex="1" connectable="0">
          <mxGeometry x="-0.1123" y="-3" relative="1" as="geometry">
            <mxPoint as="offset" />
          </mxGeometry>
        </mxCell>
        <mxCell id="ke-rMQLw0LFI_Vqo6oYt-60" value="" style="endArrow=classic;html=1;rounded=0;dashed=1;" parent="1" edge="1">
          <mxGeometry width="50" height="50" relative="1" as="geometry">
            <mxPoint x="480" y="2180" as="sourcePoint" />
            <mxPoint x="290" y="2180" as="targetPoint" />
          </mxGeometry>
        </mxCell>
        <mxCell id="ke-rMQLw0LFI_Vqo6oYt-61" value="&lt;span style=&quot;font-size: 12px;&quot;&gt;fixed 상태의 이슈 조회&lt;/span&gt;" style="edgeLabel;html=1;align=center;verticalAlign=middle;resizable=0;points=[];fontFamily=Helvetica;fontSize=11;fontColor=default;labelBackgroundColor=default;" parent="ke-rMQLw0LFI_Vqo6oYt-60" vertex="1" connectable="0">
          <mxGeometry x="-0.1123" y="-3" relative="1" as="geometry">
            <mxPoint as="offset" />
          </mxGeometry>
        </mxCell>
        <mxCell id="ke-rMQLw0LFI_Vqo6oYt-62" value="" style="endArrow=classic;html=1;rounded=0;dashed=1;" parent="1" edge="1">
          <mxGeometry width="50" height="50" relative="1" as="geometry">
            <mxPoint x="290" y="2210" as="sourcePoint" />
            <mxPoint x="480" y="2210" as="targetPoint" />
          </mxGeometry>
        </mxCell>
        <mxCell id="ke-rMQLw0LFI_Vqo6oYt-63" value="&lt;span style=&quot;font-size: 12px;&quot;&gt;fixed 상태의 이슈 목록 응답&lt;/span&gt;" style="edgeLabel;html=1;align=center;verticalAlign=middle;resizable=0;points=[];fontFamily=Helvetica;fontSize=11;fontColor=default;labelBackgroundColor=default;" parent="ke-rMQLw0LFI_Vqo6oYt-62" vertex="1" connectable="0">
          <mxGeometry x="-0.1123" y="-3" relative="1" as="geometry">
            <mxPoint as="offset" />
          </mxGeometry>
        </mxCell>
        <mxCell id="ke-rMQLw0LFI_Vqo6oYt-64" value="" style="endArrow=classic;html=1;rounded=0;dashed=1;" parent="1" edge="1">
          <mxGeometry width="50" height="50" relative="1" as="geometry">
            <mxPoint x="475" y="2240" as="sourcePoint" />
            <mxPoint x="105" y="2240" as="targetPoint" />
          </mxGeometry>
        </mxCell>
        <mxCell id="ke-rMQLw0LFI_Vqo6oYt-65" value="&lt;span style=&quot;font-size: 12px;&quot;&gt;이슈 목록 응답&lt;/span&gt;" style="edgeLabel;html=1;align=center;verticalAlign=middle;resizable=0;points=[];fontFamily=Helvetica;fontSize=11;fontColor=default;labelBackgroundColor=default;" parent="ke-rMQLw0LFI_Vqo6oYt-64" vertex="1" connectable="0">
          <mxGeometry x="-0.1123" y="-3" relative="1" as="geometry">
            <mxPoint as="offset" />
          </mxGeometry>
        </mxCell>
        <mxCell id="ke-rMQLw0LFI_Vqo6oYt-66" value="" style="endArrow=classic;html=1;rounded=0;dashed=1;" parent="1" edge="1">
          <mxGeometry width="50" height="50" relative="1" as="geometry">
            <mxPoint x="105" y="2150" as="sourcePoint" />
            <mxPoint x="475" y="2150" as="targetPoint" />
          </mxGeometry>
        </mxCell>
        <mxCell id="ke-rMQLw0LFI_Vqo6oYt-67" value="&lt;span style=&quot;font-size: 12px;&quot;&gt;자신이 report한 이슈 검색 요청&lt;/span&gt;" style="edgeLabel;html=1;align=center;verticalAlign=middle;resizable=0;points=[];fontFamily=Helvetica;fontSize=11;fontColor=default;labelBackgroundColor=default;" parent="ke-rMQLw0LFI_Vqo6oYt-66" vertex="1" connectable="0">
          <mxGeometry x="-0.1123" y="-3" relative="1" as="geometry">
            <mxPoint as="offset" />
          </mxGeometry>
        </mxCell>
        <mxCell id="ke-rMQLw0LFI_Vqo6oYt-68" value="" style="endArrow=classic;html=1;rounded=0;dashed=1;" parent="1" edge="1">
          <mxGeometry width="50" height="50" relative="1" as="geometry">
            <mxPoint x="480" y="2330" as="sourcePoint" />
            <mxPoint x="290" y="2330" as="targetPoint" />
          </mxGeometry>
        </mxCell>
        <mxCell id="ke-rMQLw0LFI_Vqo6oYt-69" value="&lt;span style=&quot;font-size: 12px;&quot;&gt;이슈 업데이트&lt;/span&gt;" style="edgeLabel;html=1;align=center;verticalAlign=middle;resizable=0;points=[];fontFamily=Helvetica;fontSize=11;fontColor=default;labelBackgroundColor=default;" parent="ke-rMQLw0LFI_Vqo6oYt-68" vertex="1" connectable="0">
          <mxGeometry x="-0.1123" y="-3" relative="1" as="geometry">
            <mxPoint as="offset" />
          </mxGeometry>
        </mxCell>
        <mxCell id="ke-rMQLw0LFI_Vqo6oYt-70" value="" style="endArrow=classic;html=1;rounded=0;dashed=1;" parent="1" edge="1">
          <mxGeometry width="50" height="50" relative="1" as="geometry">
            <mxPoint x="290" y="2350" as="sourcePoint" />
            <mxPoint x="480" y="2350" as="targetPoint" />
          </mxGeometry>
        </mxCell>
        <mxCell id="ke-rMQLw0LFI_Vqo6oYt-71" value="&lt;span style=&quot;font-size: 12px;&quot;&gt;업데이트 완료 응답&lt;/span&gt;" style="edgeLabel;html=1;align=center;verticalAlign=middle;resizable=0;points=[];fontFamily=Helvetica;fontSize=11;fontColor=default;labelBackgroundColor=default;" parent="ke-rMQLw0LFI_Vqo6oYt-70" vertex="1" connectable="0">
          <mxGeometry x="-0.1123" y="-3" relative="1" as="geometry">
            <mxPoint as="offset" />
          </mxGeometry>
        </mxCell>
        <mxCell id="ke-rMQLw0LFI_Vqo6oYt-72" value="" style="endArrow=classic;html=1;rounded=0;dashed=1;" parent="1" edge="1">
          <mxGeometry width="50" height="50" relative="1" as="geometry">
            <mxPoint x="475" y="2380" as="sourcePoint" />
            <mxPoint x="105" y="2380" as="targetPoint" />
          </mxGeometry>
        </mxCell>
        <mxCell id="ke-rMQLw0LFI_Vqo6oYt-73" value="&lt;span style=&quot;font-size: 12px;&quot;&gt;이슈 상태 변경 완료 응답&lt;/span&gt;" style="edgeLabel;html=1;align=center;verticalAlign=middle;resizable=0;points=[];fontFamily=Helvetica;fontSize=11;fontColor=default;labelBackgroundColor=default;" parent="ke-rMQLw0LFI_Vqo6oYt-72" vertex="1" connectable="0">
          <mxGeometry x="-0.1123" y="-3" relative="1" as="geometry">
            <mxPoint as="offset" />
          </mxGeometry>
        </mxCell>
        <object label="&lt;span style=&quot;font-size: 12px; background-color: rgb(251, 251, 251);&quot;&gt;PL&lt;/span&gt;" id="ke-rMQLw0LFI_Vqo6oYt-74">
          <mxCell style="rounded=0;whiteSpace=wrap;html=1;fontFamily=Helvetica;fontSize=11;fontColor=default;labelBackgroundColor=default;" parent="1" vertex="1">
            <mxGeometry x="40" y="2500" width="120" height="60" as="geometry" />
          </mxCell>
        </object>
        <mxCell id="ke-rMQLw0LFI_Vqo6oYt-75" value="" style="endArrow=none;dashed=1;html=1;dashPattern=1 3;strokeWidth=2;rounded=0;" parent="1" edge="1">
          <mxGeometry width="50" height="50" relative="1" as="geometry">
            <mxPoint x="100" y="3240" as="sourcePoint" />
            <mxPoint x="99.5" y="2560" as="targetPoint" />
          </mxGeometry>
        </mxCell>
        <object label="DB" id="ke-rMQLw0LFI_Vqo6oYt-76">
          <mxCell style="rounded=0;whiteSpace=wrap;html=1;" parent="1" vertex="1">
            <mxGeometry x="230" y="2500" width="120" height="60" as="geometry" />
          </mxCell>
        </object>
        <object label="system" id="ke-rMQLw0LFI_Vqo6oYt-77">
          <mxCell style="rounded=0;whiteSpace=wrap;html=1;" parent="1" vertex="1">
            <mxGeometry x="430" y="2070" width="120" height="60" as="geometry" />
          </mxCell>
        </object>
        <mxCell id="ke-rMQLw0LFI_Vqo6oYt-78" value="" style="endArrow=none;dashed=1;html=1;dashPattern=1 3;strokeWidth=2;rounded=0;" parent="1" edge="1">
          <mxGeometry width="50" height="50" relative="1" as="geometry">
            <mxPoint x="290" y="3240" as="sourcePoint" />
            <mxPoint x="289.5" y="2560" as="targetPoint" />
          </mxGeometry>
        </mxCell>
        <mxCell id="ke-rMQLw0LFI_Vqo6oYt-79" value="" style="endArrow=none;dashed=1;html=1;dashPattern=1 3;strokeWidth=2;rounded=0;" parent="1" edge="1">
          <mxGeometry width="50" height="50" relative="1" as="geometry">
            <mxPoint x="494" y="3240" as="sourcePoint" />
            <mxPoint x="493.5" y="2560" as="targetPoint" />
          </mxGeometry>
        </mxCell>
        <mxCell id="ke-rMQLw0LFI_Vqo6oYt-80" value="" style="endArrow=classic;html=1;rounded=0;dashed=1;" parent="1" edge="1">
          <mxGeometry width="50" height="50" relative="1" as="geometry">
            <mxPoint x="95" y="2590" as="sourcePoint" />
            <mxPoint x="490" y="2590" as="targetPoint" />
          </mxGeometry>
        </mxCell>
        <mxCell id="ke-rMQLw0LFI_Vqo6oYt-81" value="&lt;span style=&quot;font-size: 12px;&quot;&gt;resolved 상태의 이슈 검색 요청&lt;/span&gt;" style="edgeLabel;html=1;align=center;verticalAlign=middle;resizable=0;points=[];fontFamily=Helvetica;fontSize=11;fontColor=default;labelBackgroundColor=default;" parent="ke-rMQLw0LFI_Vqo6oYt-80" vertex="1" connectable="0">
          <mxGeometry x="-0.1123" y="-3" relative="1" as="geometry">
            <mxPoint as="offset" />
          </mxGeometry>
        </mxCell>
        <mxCell id="ke-rMQLw0LFI_Vqo6oYt-82" value="" style="endArrow=classic;html=1;rounded=0;dashed=1;" parent="1" edge="1">
          <mxGeometry width="50" height="50" relative="1" as="geometry">
            <mxPoint x="490" y="2620" as="sourcePoint" />
            <mxPoint x="290" y="2620" as="targetPoint" />
          </mxGeometry>
        </mxCell>
        <mxCell id="ke-rMQLw0LFI_Vqo6oYt-83" value="&lt;span style=&quot;font-size: 12px;&quot;&gt;resolved 상태의 이슈 조회&lt;/span&gt;" style="edgeLabel;html=1;align=center;verticalAlign=middle;resizable=0;points=[];fontFamily=Helvetica;fontSize=11;fontColor=default;labelBackgroundColor=default;" parent="ke-rMQLw0LFI_Vqo6oYt-82" vertex="1" connectable="0">
          <mxGeometry x="-0.1123" y="-3" relative="1" as="geometry">
            <mxPoint as="offset" />
          </mxGeometry>
        </mxCell>
        <mxCell id="ke-rMQLw0LFI_Vqo6oYt-84" value="" style="endArrow=classic;html=1;rounded=0;dashed=1;" parent="1" edge="1">
          <mxGeometry width="50" height="50" relative="1" as="geometry">
            <mxPoint x="290" y="2650" as="sourcePoint" />
            <mxPoint x="490" y="2650" as="targetPoint" />
          </mxGeometry>
        </mxCell>
        <mxCell id="ke-rMQLw0LFI_Vqo6oYt-85" value="&lt;span style=&quot;font-size: 12px;&quot;&gt;resolved 상태의 이슈 목록 응답&lt;/span&gt;" style="edgeLabel;html=1;align=center;verticalAlign=middle;resizable=0;points=[];fontFamily=Helvetica;fontSize=11;fontColor=default;labelBackgroundColor=default;" parent="ke-rMQLw0LFI_Vqo6oYt-84" vertex="1" connectable="0">
          <mxGeometry x="-0.1123" y="-3" relative="1" as="geometry">
            <mxPoint as="offset" />
          </mxGeometry>
        </mxCell>
        <mxCell id="ke-rMQLw0LFI_Vqo6oYt-86" value="" style="endArrow=classic;html=1;rounded=0;dashed=1;" parent="1" edge="1">
          <mxGeometry width="50" height="50" relative="1" as="geometry">
            <mxPoint x="497.5" y="2680" as="sourcePoint" />
            <mxPoint x="102.5" y="2680" as="targetPoint" />
          </mxGeometry>
        </mxCell>
        <mxCell id="ke-rMQLw0LFI_Vqo6oYt-87" value="&lt;span style=&quot;font-size: 12px;&quot;&gt;이슈 목록 응답&lt;/span&gt;" style="edgeLabel;html=1;align=center;verticalAlign=middle;resizable=0;points=[];fontFamily=Helvetica;fontSize=11;fontColor=default;labelBackgroundColor=default;" parent="ke-rMQLw0LFI_Vqo6oYt-86" vertex="1" connectable="0">
          <mxGeometry x="-0.1123" y="-3" relative="1" as="geometry">
            <mxPoint as="offset" />
          </mxGeometry>
        </mxCell>
        <mxCell id="ke-rMQLw0LFI_Vqo6oYt-88" value="" style="endArrow=classic;html=1;rounded=0;dashed=1;" parent="1" edge="1">
          <mxGeometry width="50" height="50" relative="1" as="geometry">
            <mxPoint x="102.5" y="2720" as="sourcePoint" />
            <mxPoint x="497.5" y="2720" as="targetPoint" />
          </mxGeometry>
        </mxCell>
        <mxCell id="ke-rMQLw0LFI_Vqo6oYt-89" value="&lt;span style=&quot;font-size: 12px;&quot;&gt;이슈 상태 변경 요청&lt;/span&gt;" style="edgeLabel;html=1;align=center;verticalAlign=middle;resizable=0;points=[];fontFamily=Helvetica;fontSize=11;fontColor=default;labelBackgroundColor=default;" parent="ke-rMQLw0LFI_Vqo6oYt-88" vertex="1" connectable="0">
          <mxGeometry x="-0.1123" y="-3" relative="1" as="geometry">
            <mxPoint as="offset" />
          </mxGeometry>
        </mxCell>
        <mxCell id="ke-rMQLw0LFI_Vqo6oYt-90" value="" style="endArrow=classic;html=1;rounded=0;dashed=1;" parent="1" edge="1">
          <mxGeometry width="50" height="50" relative="1" as="geometry">
            <mxPoint x="490" y="2750" as="sourcePoint" />
            <mxPoint x="290" y="2750" as="targetPoint" />
          </mxGeometry>
        </mxCell>
        <mxCell id="ke-rMQLw0LFI_Vqo6oYt-91" value="&lt;span style=&quot;font-size: 12px;&quot;&gt;이슈 업데이트&lt;/span&gt;" style="edgeLabel;html=1;align=center;verticalAlign=middle;resizable=0;points=[];fontFamily=Helvetica;fontSize=11;fontColor=default;labelBackgroundColor=default;" parent="ke-rMQLw0LFI_Vqo6oYt-90" vertex="1" connectable="0">
          <mxGeometry x="-0.1123" y="-3" relative="1" as="geometry">
            <mxPoint as="offset" />
          </mxGeometry>
        </mxCell>
        <mxCell id="ke-rMQLw0LFI_Vqo6oYt-93" value="" style="endArrow=classic;html=1;rounded=0;dashed=1;" parent="1" edge="1">
          <mxGeometry width="50" height="50" relative="1" as="geometry">
            <mxPoint x="290" y="2780" as="sourcePoint" />
            <mxPoint x="490" y="2780" as="targetPoint" />
          </mxGeometry>
        </mxCell>
        <mxCell id="ke-rMQLw0LFI_Vqo6oYt-94" value="&lt;span style=&quot;font-size: 12px;&quot;&gt;업데이트 완료 응답&lt;/span&gt;" style="edgeLabel;html=1;align=center;verticalAlign=middle;resizable=0;points=[];fontFamily=Helvetica;fontSize=11;fontColor=default;labelBackgroundColor=default;" parent="ke-rMQLw0LFI_Vqo6oYt-93" vertex="1" connectable="0">
          <mxGeometry x="-0.1123" y="-3" relative="1" as="geometry">
            <mxPoint as="offset" />
          </mxGeometry>
        </mxCell>
        <mxCell id="ke-rMQLw0LFI_Vqo6oYt-95" value="" style="endArrow=classic;html=1;rounded=0;dashed=1;" parent="1" edge="1">
          <mxGeometry width="50" height="50" relative="1" as="geometry">
            <mxPoint x="497.5" y="2810" as="sourcePoint" />
            <mxPoint x="102.5" y="2810" as="targetPoint" />
          </mxGeometry>
        </mxCell>
        <mxCell id="ke-rMQLw0LFI_Vqo6oYt-96" value="&lt;span style=&quot;font-size: 12px;&quot;&gt;이슈 상태 변경 완료 응답&lt;/span&gt;" style="edgeLabel;html=1;align=center;verticalAlign=middle;resizable=0;points=[];fontFamily=Helvetica;fontSize=11;fontColor=default;labelBackgroundColor=default;" parent="ke-rMQLw0LFI_Vqo6oYt-95" vertex="1" connectable="0">
          <mxGeometry x="-0.1123" y="-3" relative="1" as="geometry">
            <mxPoint as="offset" />
          </mxGeometry>
        </mxCell>
        <mxCell id="ke-rMQLw0LFI_Vqo6oYt-97" value="" style="endArrow=classic;html=1;rounded=0;dashed=1;" parent="1" edge="1">
          <mxGeometry width="50" height="50" relative="1" as="geometry">
            <mxPoint x="102.5" y="2860" as="sourcePoint" />
            <mxPoint x="497.5" y="2860" as="targetPoint" />
          </mxGeometry>
        </mxCell>
        <mxCell id="ke-rMQLw0LFI_Vqo6oYt-98" value="&lt;span style=&quot;font-size: 12px;&quot;&gt;new 상태의 이슈 검색 요청&lt;/span&gt;" style="edgeLabel;html=1;align=center;verticalAlign=middle;resizable=0;points=[];fontFamily=Helvetica;fontSize=11;fontColor=default;labelBackgroundColor=default;" parent="ke-rMQLw0LFI_Vqo6oYt-97" vertex="1" connectable="0">
          <mxGeometry x="-0.1123" y="-3" relative="1" as="geometry">
            <mxPoint as="offset" />
          </mxGeometry>
        </mxCell>
        <mxCell id="ke-rMQLw0LFI_Vqo6oYt-99" value="" style="endArrow=classic;html=1;rounded=0;dashed=1;" parent="1" edge="1">
          <mxGeometry width="50" height="50" relative="1" as="geometry">
            <mxPoint x="490" y="2890" as="sourcePoint" />
            <mxPoint x="290" y="2890" as="targetPoint" />
          </mxGeometry>
        </mxCell>
        <mxCell id="ke-rMQLw0LFI_Vqo6oYt-100" value="&lt;span style=&quot;font-size: 12px;&quot;&gt;new 상태의 이슈 조회&lt;/span&gt;" style="edgeLabel;html=1;align=center;verticalAlign=middle;resizable=0;points=[];fontFamily=Helvetica;fontSize=11;fontColor=default;labelBackgroundColor=default;" parent="ke-rMQLw0LFI_Vqo6oYt-99" vertex="1" connectable="0">
          <mxGeometry x="-0.1123" y="-3" relative="1" as="geometry">
            <mxPoint as="offset" />
          </mxGeometry>
        </mxCell>
        <mxCell id="ke-rMQLw0LFI_Vqo6oYt-101" value="" style="endArrow=classic;html=1;rounded=0;dashed=1;" parent="1" edge="1">
          <mxGeometry width="50" height="50" relative="1" as="geometry">
            <mxPoint x="290" y="2910" as="sourcePoint" />
            <mxPoint x="490" y="2910" as="targetPoint" />
          </mxGeometry>
        </mxCell>
        <mxCell id="ke-rMQLw0LFI_Vqo6oYt-102" value="&lt;span style=&quot;font-size: 12px;&quot;&gt;new 상태의 이슈 목록 응답&lt;/span&gt;" style="edgeLabel;html=1;align=center;verticalAlign=middle;resizable=0;points=[];fontFamily=Helvetica;fontSize=11;fontColor=default;labelBackgroundColor=default;" parent="ke-rMQLw0LFI_Vqo6oYt-101" vertex="1" connectable="0">
          <mxGeometry x="-0.1123" y="-3" relative="1" as="geometry">
            <mxPoint as="offset" />
          </mxGeometry>
        </mxCell>
        <mxCell id="ke-rMQLw0LFI_Vqo6oYt-103" value="" style="endArrow=classic;html=1;rounded=0;dashed=1;" parent="1" edge="1">
          <mxGeometry width="50" height="50" relative="1" as="geometry">
            <mxPoint x="497.5" y="2940" as="sourcePoint" />
            <mxPoint x="102.5" y="2940" as="targetPoint" />
          </mxGeometry>
        </mxCell>
        <mxCell id="ke-rMQLw0LFI_Vqo6oYt-104" value="&lt;span style=&quot;font-size: 12px;&quot;&gt;이슈 목록 응답&lt;/span&gt;" style="edgeLabel;html=1;align=center;verticalAlign=middle;resizable=0;points=[];fontFamily=Helvetica;fontSize=11;fontColor=default;labelBackgroundColor=default;" parent="ke-rMQLw0LFI_Vqo6oYt-103" vertex="1" connectable="0">
          <mxGeometry x="-0.1123" y="-3" relative="1" as="geometry">
            <mxPoint as="offset" />
          </mxGeometry>
        </mxCell>
        <mxCell id="ke-rMQLw0LFI_Vqo6oYt-105" value="" style="endArrow=classic;html=1;rounded=0;dashed=1;" parent="1" edge="1">
          <mxGeometry width="50" height="50" relative="1" as="geometry">
            <mxPoint x="92.5" y="3000" as="sourcePoint" />
            <mxPoint x="487.5" y="3000" as="targetPoint" />
          </mxGeometry>
        </mxCell>
        <mxCell id="ke-rMQLw0LFI_Vqo6oYt-106" value="&lt;span style=&quot;font-size: 12px;&quot;&gt;특정 이슈 상세 정보 요청&lt;/span&gt;" style="edgeLabel;html=1;align=center;verticalAlign=middle;resizable=0;points=[];fontFamily=Helvetica;fontSize=11;fontColor=default;labelBackgroundColor=default;" parent="ke-rMQLw0LFI_Vqo6oYt-105" vertex="1" connectable="0">
          <mxGeometry x="-0.1123" y="-3" relative="1" as="geometry">
            <mxPoint as="offset" />
          </mxGeometry>
        </mxCell>
        <mxCell id="ke-rMQLw0LFI_Vqo6oYt-107" value="" style="endArrow=classic;html=1;rounded=0;dashed=1;" parent="1" edge="1">
          <mxGeometry width="50" height="50" relative="1" as="geometry">
            <mxPoint x="490" y="3030" as="sourcePoint" />
            <mxPoint x="290" y="3030" as="targetPoint" />
          </mxGeometry>
        </mxCell>
        <mxCell id="ke-rMQLw0LFI_Vqo6oYt-108" value="&lt;span style=&quot;font-size: 12px;&quot;&gt;이슈 상세 정보 조회&lt;/span&gt;" style="edgeLabel;html=1;align=center;verticalAlign=middle;resizable=0;points=[];fontFamily=Helvetica;fontSize=11;fontColor=default;labelBackgroundColor=default;" parent="ke-rMQLw0LFI_Vqo6oYt-107" vertex="1" connectable="0">
          <mxGeometry x="-0.1123" y="-3" relative="1" as="geometry">
            <mxPoint as="offset" />
          </mxGeometry>
        </mxCell>
        <mxCell id="ke-rMQLw0LFI_Vqo6oYt-109" value="" style="endArrow=classic;html=1;rounded=0;dashed=1;" parent="1" edge="1">
          <mxGeometry width="50" height="50" relative="1" as="geometry">
            <mxPoint x="290" y="3060" as="sourcePoint" />
            <mxPoint x="490" y="3060" as="targetPoint" />
          </mxGeometry>
        </mxCell>
        <mxCell id="ke-rMQLw0LFI_Vqo6oYt-110" value="&lt;span style=&quot;font-size: 12px;&quot;&gt;이슈 상세 정보 응답&lt;/span&gt;" style="edgeLabel;html=1;align=center;verticalAlign=middle;resizable=0;points=[];fontFamily=Helvetica;fontSize=11;fontColor=default;labelBackgroundColor=default;" parent="ke-rMQLw0LFI_Vqo6oYt-109" vertex="1" connectable="0">
          <mxGeometry x="-0.1123" y="-3" relative="1" as="geometry">
            <mxPoint as="offset" />
          </mxGeometry>
        </mxCell>
        <mxCell id="ke-rMQLw0LFI_Vqo6oYt-111" value="" style="endArrow=classic;html=1;rounded=0;dashed=1;" parent="1" edge="1">
          <mxGeometry width="50" height="50" relative="1" as="geometry">
            <mxPoint x="497.5" y="3090" as="sourcePoint" />
            <mxPoint x="102.5" y="3090" as="targetPoint" />
          </mxGeometry>
        </mxCell>
        <mxCell id="ke-rMQLw0LFI_Vqo6oYt-112" value="&lt;span style=&quot;font-size: 12px;&quot;&gt;이슈 상세 정보 응답&lt;/span&gt;" style="edgeLabel;html=1;align=center;verticalAlign=middle;resizable=0;points=[];fontFamily=Helvetica;fontSize=11;fontColor=default;labelBackgroundColor=default;" parent="ke-rMQLw0LFI_Vqo6oYt-111" vertex="1" connectable="0">
          <mxGeometry x="-0.1123" y="-3" relative="1" as="geometry">
            <mxPoint as="offset" />
          </mxGeometry>
        </mxCell>
        <mxCell id="ke-rMQLw0LFI_Vqo6oYt-113" value="" style="endArrow=classic;html=1;rounded=0;dashed=1;" parent="1" edge="1">
          <mxGeometry width="50" height="50" relative="1" as="geometry">
            <mxPoint x="490" y="3120" as="sourcePoint" />
            <mxPoint x="290" y="3120" as="targetPoint" />
          </mxGeometry>
        </mxCell>
        <mxCell id="ke-rMQLw0LFI_Vqo6oYt-114" value="&lt;span style=&quot;font-size: 12px;&quot;&gt;fixed된 이슈의 개발자 이력 조회&lt;/span&gt;" style="edgeLabel;html=1;align=center;verticalAlign=middle;resizable=0;points=[];fontFamily=Helvetica;fontSize=11;fontColor=default;labelBackgroundColor=default;" parent="ke-rMQLw0LFI_Vqo6oYt-113" vertex="1" connectable="0">
          <mxGeometry x="-0.1123" y="-3" relative="1" as="geometry">
            <mxPoint as="offset" />
          </mxGeometry>
        </mxCell>
        <mxCell id="ke-rMQLw0LFI_Vqo6oYt-115" value="" style="endArrow=classic;html=1;rounded=0;dashed=1;" parent="1" edge="1">
          <mxGeometry width="50" height="50" relative="1" as="geometry">
            <mxPoint x="290" y="3150" as="sourcePoint" />
            <mxPoint x="490" y="3150" as="targetPoint" />
          </mxGeometry>
        </mxCell>
        <mxCell id="ke-rMQLw0LFI_Vqo6oYt-116" value="&lt;span style=&quot;font-size: 12px;&quot;&gt;개발자 이력 응답&lt;/span&gt;" style="edgeLabel;html=1;align=center;verticalAlign=middle;resizable=0;points=[];fontFamily=Helvetica;fontSize=11;fontColor=default;labelBackgroundColor=default;" parent="ke-rMQLw0LFI_Vqo6oYt-115" vertex="1" connectable="0">
          <mxGeometry x="-0.1123" y="-3" relative="1" as="geometry">
            <mxPoint as="offset" />
          </mxGeometry>
        </mxCell>
        <mxCell id="ke-rMQLw0LFI_Vqo6oYt-119" value="" style="endArrow=classic;html=1;rounded=0;dashed=1;" parent="1" edge="1">
          <mxGeometry width="50" height="50" relative="1" as="geometry">
            <mxPoint x="497.5" y="3190" as="sourcePoint" />
            <mxPoint x="102.5" y="3190" as="targetPoint" />
          </mxGeometry>
        </mxCell>
        <mxCell id="ke-rMQLw0LFI_Vqo6oYt-120" value="&lt;span style=&quot;font-size: 12px;&quot;&gt;개발자 추천 목록 응답&lt;/span&gt;" style="edgeLabel;html=1;align=center;verticalAlign=middle;resizable=0;points=[];fontFamily=Helvetica;fontSize=11;fontColor=default;labelBackgroundColor=default;" parent="ke-rMQLw0LFI_Vqo6oYt-119" vertex="1" connectable="0">
          <mxGeometry x="-0.1123" y="-3" relative="1" as="geometry">
            <mxPoint as="offset" />
          </mxGeometry>
        </mxCell>
      </root>
    </mxGraphModel>
  </diagram>
</mxfile>
